<svg width="24" height="24" viewBox="0 0 24 24" fill="none" xmlns="http://www.w3.org/2000/svg">
<path d="M12.0001 10.5C12.8346 10.5 13.5089 11.1703 13.5089 12C13.5089 12.8297 12.8346 13.5 12.0001 13.5C11.1655 13.5 10.4912 12.8297 10.4912 12C10.4912 11.1703 11.1655 10.5 12.0001 10.5ZM10.4912 6.375C10.4912 7.20469 11.1655 7.875 12.0001 7.875C12.8346 7.875 13.5089 7.20469 13.5089 6.375C13.5089 5.54531 12.8346 4.875 12.0001 4.875C11.1655 4.875 10.4912 5.54531 10.4912 6.375ZM10.4912 17.625C10.4912 18.4547 11.1655 19.125 12.0001 19.125C12.8346 19.125 13.5089 18.4547 13.5089 17.625C13.5089 16.7953 12.8346 16.125 12.0001 16.125C11.1655 16.125 10.4912 16.7953 10.4912 17.625Z" fill="#0D1722"/>
</svg>
