<svg width="119" height="19" viewBox="0 0 119 19" fill="none" xmlns="http://www.w3.org/2000/svg">
<g clip-path="url(#clip0_346_6426)">
<path d="M14.1827 12.6567C13.1755 14.9033 11.1402 16.2386 8.76884 16.2386C5.36936 16.2386 2.6205 13.2292 2.6205 9.52006C2.6205 5.81092 5.39022 2.80108 8.76884 2.80108C11.2241 2.80108 13.1964 4.11497 14.1827 6.38299L14.2248 6.48914H16.7848L16.7009 6.23471C15.5674 2.63132 12.5249 0.40625 8.76884 0.40625C4.02642 0.40625 0.186523 4.47555 0.186523 9.49858C0.186523 14.5216 4.02642 18.6124 8.76884 18.6124C12.4828 18.6124 15.5257 16.3658 16.7005 12.7629L16.7844 12.5084H14.2453L14.1827 12.6567ZM24.3178 16.3022C22.0936 16.3022 20.2889 14.3101 20.2889 11.8513C20.2889 9.35029 22.0936 7.33671 24.3178 7.33671C26.542 7.33671 28.4096 9.4139 28.4096 11.8513C28.3887 14.2676 26.5211 16.3022 24.3178 16.3022ZM28.4725 6.97653C27.9672 6.35524 27.3335 5.85308 26.6158 5.50524C25.8981 5.15741 25.1138 4.97232 24.3178 4.96295C20.6876 4.96295 17.8337 7.97238 17.8337 11.8302C17.8337 15.6666 20.6876 18.676 24.3178 18.676C25.1157 18.6656 25.9015 18.4779 26.6196 18.1262C27.3376 17.7746 27.9702 17.2676 28.4725 16.6413V18.3579H30.8435V5.28099H28.4725V6.97653V6.97653ZM38.8803 4.96295C38.2369 4.95543 37.5986 5.0792 37.0036 5.32683C36.4086 5.57445 35.8693 5.94085 35.4179 6.40405V5.28058H33.0469V18.3575H35.5021V10.4098C35.5021 8.58699 36.8029 7.2731 38.6076 7.2731C40.1394 7.2731 41.1888 8.18427 41.4403 9.71047V9.75301L43.8742 9.73195V9.66834C43.5389 6.78571 41.6505 4.96295 38.8803 4.96295" fill="#EF3945"/>
<path d="M8.22412 7.52814H9.81897V12.2546H8.22412V7.52814Z" fill="#EF3945"/>
<path d="M11.9785 9.18092C12.4885 9.18092 12.9019 8.76335 12.9019 8.24826C12.9019 7.73318 12.4885 7.31561 11.9785 7.31561C11.4686 7.31561 11.0552 7.73318 11.0552 8.24826C11.0552 8.76335 11.4686 9.18092 11.9785 9.18092Z" fill="#EF3945"/>
<path d="M6.04105 9.18092C6.55102 9.18092 6.96442 8.76335 6.96442 8.24826C6.96442 7.73318 6.55102 7.31561 6.04105 7.31561C5.53108 7.31561 5.11768 7.73318 5.11768 8.24826C5.11768 8.76335 5.53108 9.18092 6.04105 9.18092Z" fill="#EF3945"/>
<path d="M94.5698 18.5586C91.4897 18.5586 89.2541 16.3005 89.2541 13.1895V5.42508H91.4079V13.1891C91.4079 15.1246 92.6789 16.4253 94.5698 16.4253C96.4485 16.4253 97.7104 15.1246 97.7104 13.1891V5.42508H99.8856V13.1891C99.8852 16.3009 97.6495 18.5586 94.5698 18.5586ZM69.5148 18.5586C66.4347 18.5586 64.1991 16.3005 64.1991 13.1895V5.42508H66.3529V13.1891C66.3529 15.1246 67.6239 16.4253 69.5148 16.4253C71.3934 16.4253 72.6554 15.1246 72.6554 13.1891V5.42508H74.8305V13.1891C74.8305 16.3009 72.5949 18.5586 69.5148 18.5586ZM107.538 10.0735C104.978 9.67075 104.516 9.33164 104.516 8.63236C104.516 7.74225 105.691 7.04297 107.181 7.04297C108.734 7.04297 109.762 7.74225 110.014 8.92934L110.056 9.07762H112.532L112.511 8.86573C112.238 6.32221 110.203 4.73282 107.202 4.73282C103.677 4.73282 102.082 6.78854 102.082 8.69638C102.082 11.2184 104.013 12.0028 107.14 12.4476C110.161 12.8504 110.392 13.465 110.392 14.2279C110.392 15.1605 109.385 16.1142 107.434 16.1142C105.65 16.1142 104.349 15.2452 104.097 13.8677L104.076 13.7194H101.621L101.642 13.9313C101.999 16.6652 104.265 18.4459 107.433 18.4459C110.623 18.4459 112.763 16.7078 112.763 14.1221C112.783 11.1544 110.517 10.5398 107.538 10.0735ZM53.1685 9.77691V11.9598H58.5615L58.6245 11.8537C58.7799 11.5162 58.8927 11.1602 58.9602 10.7938C59.0289 10.4584 59.071 10.1185 59.0861 9.77649H53.1685V9.77691Z" fill="#28B2FF"/>
<path d="M60.0515 9.77593C59.9256 13.4214 57.3235 16.1769 54.0291 16.1769C50.588 16.1769 47.7761 13.1674 47.7761 9.50043C47.7761 5.81236 50.588 2.80293 54.0291 2.80293C56.3584 2.80293 58.352 4.1383 59.3801 6.38484L59.4222 6.49099H62.0451L61.9613 6.23656C60.7234 2.63358 57.6175 0.323425 54.0296 0.323425C49.2242 0.323425 45.3213 4.43527 45.3213 9.47936C45.3213 14.5234 49.2242 18.6353 54.0296 18.6353C55.1151 18.639 56.1903 18.4234 57.1921 18.0012C58.1939 17.579 59.102 16.9587 59.863 16.1769C60.6821 15.332 61.3266 14.3309 61.759 13.232C62.1913 12.1331 62.4028 10.9582 62.3812 9.77593H60.0515V9.77593ZM82.8815 4.9648C82.2381 4.95728 81.5998 5.08105 81.0048 5.32867C80.4098 5.5763 79.8705 5.9427 79.4191 6.4059V5.28243H77.0481V18.3594H79.5033V10.4116C79.5033 8.58884 80.8041 7.27495 82.6088 7.27495C84.1406 7.27495 85.19 8.18612 85.4415 9.71232V9.75486L87.8754 9.7338V9.67019C87.5401 6.78756 85.6517 4.9648 82.8815 4.9648V4.9648ZM116.834 5.07095C116.811 5.0291 116.785 4.98942 116.755 4.9524C116.727 4.91809 116.694 4.88842 116.656 4.86443C116.863 4.82768 117.051 4.7202 117.189 4.56001C117.309 4.40595 117.372 4.2143 117.367 4.0181C117.374 3.8991 117.353 3.78005 117.305 3.67118C117.257 3.56231 117.183 3.4669 117.09 3.39316C116.834 3.23241 116.534 3.15819 116.233 3.18127H115.271V6.20145H115.794V5.00362H116.059C116.104 5.00082 116.148 5.0089 116.188 5.02716C116.217 5.0441 116.242 5.06723 116.26 5.0949L116.938 6.11719C116.954 6.14497 116.978 6.1676 117.006 6.18255C117.034 6.19751 117.066 6.20419 117.098 6.20186H117.598L116.833 5.07177V5.07095H116.834ZM116.18 4.61701H115.795V3.58771H116.234C116.333 3.58564 116.431 3.59597 116.527 3.61786C116.597 3.63356 116.662 3.66453 116.718 3.70914C116.767 3.75003 116.803 3.80414 116.824 3.86486C116.846 3.9359 116.857 4.01025 116.855 4.08501C116.86 4.15788 116.849 4.23089 116.823 4.299C116.797 4.36711 116.756 4.42869 116.705 4.47947C116.552 4.58721 116.366 4.63602 116.18 4.61701V4.61701Z" fill="#28B2FF"/>
<path d="M53.9241 8.26988C54.4571 8.26988 54.8892 7.83345 54.8892 7.29509C54.8892 6.75674 54.4571 6.32031 53.9241 6.32031C53.3911 6.32031 52.959 6.75674 52.959 7.29509C52.959 7.83345 53.3911 8.26988 53.9241 8.26988Z" fill="#28B2FF"/>
<path d="M57.5959 8.26988C58.1289 8.26988 58.561 7.83345 58.561 7.29509C58.561 6.75674 58.1289 6.32031 57.5959 6.32031C57.0629 6.32031 56.6309 6.75674 56.6309 7.29509C56.6309 7.83345 57.0629 8.26988 57.5959 8.26988Z" fill="#28B2FF"/>
<path d="M116.323 7.20576C115.831 7.20568 115.35 7.05814 114.94 6.7818C114.531 6.50546 114.212 6.11273 114.023 5.65326C113.835 5.19379 113.786 4.68822 113.882 4.20048C113.978 3.71273 114.215 3.26471 114.563 2.91306C114.911 2.56141 115.355 2.32192 115.838 2.22488C116.321 2.12784 116.821 2.17761 117.276 2.36788C117.731 2.55815 118.12 2.88039 118.393 3.29385C118.667 3.70732 118.813 4.19343 118.813 4.69074C118.813 5.3576 118.55 5.99699 118.083 6.46853C117.616 6.94007 116.983 7.20522 116.323 7.20576V7.20576ZM116.323 2.58381C115.911 2.58397 115.507 2.70771 115.164 2.93939C114.821 3.17106 114.554 3.50027 114.396 3.88537C114.238 4.27048 114.197 4.69419 114.278 5.10294C114.358 5.51168 114.557 5.88709 114.849 6.18171C115.141 6.47633 115.513 6.67692 115.918 6.75812C116.322 6.83932 116.742 6.79748 117.123 6.63789C117.504 6.4783 117.83 6.20814 118.059 5.86155C118.288 5.51496 118.41 5.10752 118.41 4.69074C118.41 4.1319 118.19 3.59612 117.798 3.20108C117.407 2.80604 116.876 2.58402 116.323 2.58381V2.58381Z" fill="#28B2FF"/>
</g>
<defs>
<clipPath id="clip0_346_6426">
<rect width="119" height="19" fill="white"/>
</clipPath>
</defs>
</svg>
